<!DOCTYPE svg PUBLIC "-//W3C//DTD SVG 20010904//EN" "http://www.w3.org/TR/2001/REC-SVG-20010904/DTD/svg10.dtd">
<svg version="1.0" xmlns="http://www.w3.org/2000/svg" width="500px" height="500px" viewBox="0 0 5000 5000" preserveAspectRatio="xMidYMid meet">
<g id="layer101" fill="#060804" stroke="none">
<path d="M0 2500 l0 -2500 2500 0 2500 0 0 2500 0 2500 -2500 0 -2500 0 0 -2500z"/>
</g>
<g id="layer102" fill="#495725" stroke="none">
<path d="M0 2500 l0 -2500 2500 0 2500 0 0 2500 0 2500 -2500 0 -2500 0 0 -2500z m744 35 c-9 -14 -21 -25 -27 -25 -6 0 0 11 13 25 13 14 25 25 27 25 2 0 -4 -11 -13 -25z m711 5 c10 -11 16 -20 13 -20 -3 0 -13 9 -23 20 -10 11 -16 20 -13 20 3 0 13 -9 23 -20z m-472 -115 c10 -28 7 -32 -50 -85 -33 -30 -66 -65 -72 -77 -6 -13 -16 -23 -21 -23 -23 0 -7 34 36 80 26 28 43 50 38 50 -25 -1 -125 -29 -156 -44 -19 -9 -40 -27 -45 -39 -14 -31 11 -111 42 -136 16 -12 22 -22 15 -26 -12 -7 -39 10 -54 35 -8 12 -11 11 -16 -9 -3 -14 -12 -27 -19 -29 -12 -4 -13 11 -7 82 11 140 22 155 138 195 29 10 71 28 93 40 50 27 66 24 78 -14z m331 0 c41 -19 79 -35 84 -35 6 0 28 -9 49 -21 48 -25 59 -53 68 -166 6 -72 5 -83 -9 -83 -9 0 -15 3 -15 8 1 4 1 16 0 26 -1 18 -4 17 -30 -8 -39 -37 -57 -25 -21 14 19 20 31 47 36 76 7 50 -2 66 -50 91 -30 15 -146 46 -152 40 -1 -1 18 -24 43 -50 42 -44 52 -77 23 -77 -6 0 -9 4 -5 9 3 5 -26 40 -65 77 -38 38 -70 71 -70 75 0 19 21 59 30 59 6 0 44 -16 84 -35z"/>
<path d="M1230 2430 c-7 -4 2 -13 25 -24 48 -23 61 -16 20 10 -18 12 -38 18 -45 14z"/>
</g>
<g id="layer103" fill="#965ea4" stroke="none">
<path d="M0 2500 l0 -2500 2500 0 2500 0 0 2500 0 2500 -2500 0 -2500 0 0 -2500z m741 32 c-34 -44 -78 -83 -52 -47 19 26 74 85 79 85 2 0 -10 -17 -27 -38z m750 -34 c17 -31 3 -20 -37 30 -36 45 -36 46 -5 17 18 -16 37 -38 42 -47z m-508 -73 c10 -28 7 -32 -50 -85 -33 -30 -66 -65 -72 -77 -6 -13 -16 -23 -21 -23 -23 0 -7 34 36 80 26 28 43 50 38 50 -25 -1 -125 -29 -156 -44 -19 -9 -40 -27 -45 -39 -15 -32 11 -113 42 -133 14 -9 22 -20 19 -25 -9 -15 -20 -11 -47 17 l-25 25 -4 -22 c-2 -12 -9 -25 -17 -27 -12 -4 -13 10 -7 82 11 140 22 155 138 195 29 10 71 28 93 40 50 27 66 24 78 -14z m331 0 c41 -19 79 -35 84 -35 6 0 28 -9 49 -21 48 -25 59 -53 68 -166 6 -72 5 -83 -9 -83 -11 0 -16 9 -16 27 l0 27 -29 -28 c-40 -38 -60 -24 -22 15 35 35 52 109 30 135 -19 23 -67 45 -129 60 -79 19 -79 19 -27 -34 47 -48 60 -82 32 -82 -8 0 -15 7 -15 15 0 8 -29 42 -65 77 -36 34 -65 65 -65 69 0 19 21 59 30 59 6 0 44 -16 84 -35z"/>
</g>
<g id="layer104" fill="#ff5364" stroke="none">
<path d="M0 2500 l0 -2500 2500 0 2500 0 0 2500 0 2500 -2500 0 -2500 0 0 -2500z m653 582 c24 -25 26 -32 17 -56 -5 -15 -10 -45 -10 -67 0 -46 -16 -51 -44 -12 -24 33 -34 126 -16 148 17 21 22 19 53 -13z m945 -3 c15 -30 7 -83 -20 -126 -29 -48 -48 -43 -48 13 0 25 -5 54 -11 66 -9 17 -6 25 17 49 32 33 44 33 62 -2z m-932 -436 c8 -11 13 -46 14 -91 l0 -74 46 49 c42 43 43 44 16 8 -17 -22 -48 -57 -70 -78 l-39 -38 -17 26 c-13 20 -46 160 -46 197 0 21 80 21 96 1z m957 -2 c5 -5 5 -17 -2 -29 -6 -11 -11 -38 -11 -59 0 -38 -29 -115 -48 -127 -5 -3 -17 3 -27 14 -26 29 -33 162 -10 197 15 22 22 24 53 20 19 -4 39 -10 45 -16z m-132 -143 c17 -31 3 -20 -37 30 -36 45 -36 46 -5 17 18 -16 37 -38 42 -47z m-508 -73 c10 -28 7 -32 -50 -85 -33 -30 -66 -65 -72 -77 -6 -13 -16 -23 -21 -23 -23 0 -7 34 36 80 26 28 43 50 38 50 -25 -1 -125 -29 -156 -44 -19 -9 -40 -27 -45 -39 -15 -32 11 -113 42 -133 14 -9 22 -20 19 -25 -9 -15 -20 -11 -47 17 l-25 25 -4 -22 c-2 -12 -9 -25 -17 -27 -12 -4 -13 10 -7 82 11 140 22 155 138 195 29 10 71 28 93 40 50 27 66 24 78 -14z m331 0 c41 -19 79 -35 84 -35 6 0 28 -9 49 -21 48 -25 59 -53 68 -166 6 -72 5 -83 -9 -83 -11 0 -16 9 -16 27 l0 27 -29 -28 c-40 -38 -60 -24 -22 15 35 35 52 109 30 135 -19 23 -67 45 -129 60 -79 19 -79 19 -27 -34 47 -48 60 -82 32 -82 -8 0 -15 7 -15 15 0 8 -29 42 -65 77 -36 34 -65 65 -65 69 0 19 21 59 30 59 6 0 44 -16 84 -35z"/>
</g>
<g id="layer105" fill="#e09b53" stroke="none">
<path d="M0 2500 l0 -2500 2500 0 2500 0 0 2500 0 2500 -2500 0 -2500 0 0 -2500z m653 582 c24 -25 26 -32 17 -56 -5 -15 -10 -45 -10 -66 0 -51 -12 -56 -40 -18 -38 52 -39 168 -1 168 4 0 20 -13 34 -28z m945 -3 c15 -30 7 -83 -20 -126 -29 -48 -48 -43 -48 13 0 25 -5 54 -11 66 -9 17 -6 25 17 49 32 33 44 33 62 -2z m-425 -81 c8 -24 18 -50 22 -60 14 -33 -160 -46 -193 -14 -3 4 2 31 13 61 l18 55 63 0 62 0 15 -42z m885 5 c-26 -4 -27 -8 -31 -66 l-3 -62 -2 68 -2 67 33 -1 c29 -2 30 -2 5 -6z m209 1 c-3 -3 -12 -4 -19 -1 -8 3 -5 6 6 6 11 1 17 -2 13 -5z m241 -6 c19 -19 14 -46 -10 -59 -13 -7 -26 -17 -30 -23 -9 -14 -22 -1 -13 14 4 6 18 15 31 20 30 12 31 38 2 50 -14 5 -17 9 -7 9 8 1 20 -4 27 -11z m385 -41 c8 -23 18 -51 23 -61 5 -13 4 -17 -3 -13 -6 4 -14 18 -17 31 -3 14 -11 38 -17 53 -11 28 -11 28 -34 -32 -13 -33 -24 -55 -24 -48 -2 20 41 123 49 118 5 -3 15 -24 23 -48z m210 46 c-27 -4 -33 -9 -33 -29 0 -19 5 -24 28 -25 l27 -2 -27 -4 c-22 -3 -28 -10 -28 -28 0 -19 6 -24 33 -28 31 -4 31 -4 -5 -5 l-38 -2 0 65 0 65 38 -2 c36 -1 36 -1 5 -5z m216 -40 c19 26 36 47 38 47 2 0 2 -30 1 -67 -1 -67 -1 -67 -7 -18 l-6 50 -34 -47 c-19 -27 -36 -48 -38 -48 -2 0 -2 30 -1 68 1 66 1 66 7 17 l6 -50 34 48z m230 7 c21 0 32 6 36 21 4 11 9 19 11 17 3 -4 -32 -103 -43 -121 -6 -10 -23 11 -23 28 0 6 4 3 10 -5 7 -11 11 -9 19 13 14 37 15 37 -14 37 -18 0 -23 -4 -20 -17 3 -10 -1 -4 -9 12 -8 17 -15 37 -15 45 0 8 4 5 9 -7 7 -17 18 -23 39 -23z m229 33 c-27 -4 -28 -7 -28 -58 0 -51 1 -54 28 -58 25 -4 25 -4 -5 -6 l-33 -1 0 65 0 65 33 -1 c30 -2 30 -2 5 -6z m259 1 c-3 -3 -12 -4 -19 -1 -8 3 -5 6 6 6 11 1 17 -2 13 -5z m241 -6 c19 -19 14 -46 -10 -59 -13 -7 -26 -17 -30 -23 -9 -14 -22 -1 -13 14 4 6 18 15 31 20 30 12 31 38 2 50 -14 5 -17 9 -7 9 8 1 20 -4 27 -11z m-2061 -27 c-8 -22 -8 -37 1 -58 11 -26 11 -27 -3 -9 -18 23 -19 49 -5 77 16 29 20 23 7 -10z m93 -26 c0 -37 -29 -69 -57 -62 -16 4 -15 5 3 6 11 0 25 6 32 13 16 16 15 70 0 88 -11 12 -10 12 5 1 10 -8 17 -27 17 -46z m1530 0 c0 -12 -7 -30 -15 -41 -14 -18 -14 -17 -5 10 8 20 8 39 1 60 -10 29 -10 29 4 12 8 -11 15 -29 15 -41z m147 26 c-8 -22 -8 -37 1 -58 11 -26 11 -27 -3 -9 -18 23 -19 49 -5 77 16 29 20 23 7 -10z m93 -26 c0 -37 -29 -69 -57 -62 -16 4 -15 5 3 6 11 0 25 6 32 13 16 16 15 70 0 88 -11 12 -10 12 5 1 10 -8 17 -27 17 -46z m-3218 -58 c26 -7 50 -15 53 -19 10 -10 -42 -112 -71 -139 l-26 -24 -39 45 c-21 25 -37 50 -34 57 8 23 55 93 63 93 4 -1 28 -6 54 -13z m553 -28 c39 -61 39 -62 -2 -108 -37 -41 -39 -41 -61 -26 -23 17 -67 95 -74 130 -2 15 6 21 47 31 28 6 53 12 57 13 4 0 19 -17 33 -40z m1082 24 c-4 -3 -10 -3 -14 0 -3 4 0 7 7 7 7 0 10 -3 7 -7z m1770 0 c-4 -3 -10 -3 -14 0 -3 4 0 7 7 7 7 0 10 -3 7 -7z m-3601 -240 c8 -11 13 -46 14 -89 l0 -71 66 63 c36 35 72 64 79 64 15 0 58 -61 80 -113 17 -42 20 -40 -60 -57 -54 -12 -52 -13 -88 51 l-18 32 -53 -52 -53 -52 -17 26 c-13 20 -46 160 -46 197 0 21 80 21 96 1z m957 -2 c5 -5 5 -17 -2 -29 -6 -11 -11 -38 -11 -59 0 -38 -29 -115 -48 -127 -5 -3 -17 3 -27 14 -26 29 -33 162 -10 197 15 22 22 24 53 20 19 -4 39 -10 45 -16z m-196 -77 c29 -25 58 -55 64 -67 11 -21 11 -21 -14 1 l-25 24 -27 -46 -26 -45 -52 6 c-76 8 -81 16 -51 76 24 48 61 97 72 97 3 0 29 -21 59 -46z m-444 -139 c10 -28 7 -32 -50 -85 -33 -30 -66 -65 -72 -77 -6 -13 -16 -23 -21 -23 -23 0 -7 34 36 80 26 28 43 50 38 50 -25 -1 -125 -29 -156 -44 -19 -9 -40 -27 -45 -39 -15 -32 11 -113 42 -133 14 -9 22 -20 19 -25 -9 -15 -20 -11 -47 17 l-25 25 -4 -22 c-2 -12 -9 -25 -17 -27 -12 -4 -13 10 -7 82 11 140 22 155 138 195 29 10 71 28 93 40 50 27 66 24 78 -14z m331 0 c41 -19 79 -35 84 -35 6 0 28 -9 49 -21 48 -25 59 -53 68 -166 6 -72 5 -83 -9 -83 -11 0 -16 9 -16 27 l0 27 -29 -28 c-40 -38 -60 -24 -22 15 35 35 52 109 30 135 -19 23 -67 45 -129 60 -79 19 -79 19 -27 -34 47 -48 60 -82 32 -82 -8 0 -15 7 -15 15 0 13 -118 135 -131 135 -3 0 -13 -25 -23 -55 l-17 -55 -63 0 -62 0 -18 56 c-13 41 -15 59 -7 67 13 13 123 16 163 5 23 -7 27 -4 37 22 5 17 15 30 21 30 6 0 44 -16 84 -35z"/>
</g>
<g id="layer106" fill="#f0c51b" stroke="none">
<path d="M0 2500 l0 -2500 2500 0 2500 0 0 2500 0 2500 -2500 0 -2500 0 0 -2500z m653 582 c24 -25 26 -32 17 -56 -5 -15 -10 -45 -10 -66 0 -51 -12 -56 -40 -18 -38 52 -39 168 -1 168 4 0 20 -13 34 -28z m945 -3 c15 -30 7 -83 -20 -126 -29 -48 -48 -43 -48 13 0 25 -5 54 -11 66 -9 17 -6 25 17 49 32 33 44 33 62 -2z m-404 -136 c6 -19 2 -22 -47 -33 -39 -8 -67 -8 -104 0 l-51 11 20 59 20 59 61 3 62 3 16 -40 c9 -22 19 -50 23 -62z m869 60 l-33 -4 0 -60 c0 -33 -4 -59 -10 -59 -6 0 -10 28 -10 65 l0 65 43 -2 c36 -1 38 -2 10 -5z m241 -15 c46 -66 -28 -144 -86 -91 -22 20 -23 70 -1 95 23 25 68 23 87 -4z m216 3 c13 -26 5 -46 -26 -60 -30 -13 -26 -37 5 -34 11 2 21 -2 21 -7 0 -14 -44 -12 -58 2 -20 20 -13 46 16 60 36 18 36 44 -1 41 -15 -1 -25 2 -22 8 11 16 54 10 65 -10z m379 -40 c23 -64 25 -71 13 -71 -4 0 -16 24 -26 52 l-18 52 -20 -52 c-11 -28 -24 -52 -29 -52 -12 0 -12 1 7 46 9 22 20 49 25 62 13 35 25 26 48 -37z m204 52 c-27 -4 -33 -9 -33 -29 0 -19 5 -24 28 -25 l27 -2 -27 -4 c-22 -3 -28 -10 -28 -28 0 -19 6 -24 33 -28 28 -3 26 -4 -10 -5 l-43 -2 0 65 0 65 43 -2 c36 -1 38 -2 10 -5z m177 -39 l0 -47 35 47 c20 25 40 46 45 46 6 0 10 -29 10 -65 0 -37 -4 -65 -10 -65 -5 0 -10 21 -10 46 l0 47 -35 -47 c-20 -25 -40 -46 -45 -46 -6 0 -10 29 -10 65 0 37 4 65 10 65 6 0 10 -21 10 -46z m235 26 c9 -29 61 -28 68 2 4 12 9 19 13 15 10 -10 -37 -128 -50 -124 -8 3 -56 109 -56 124 0 13 20 -1 25 -17z m307 3 c10 -9 18 -30 18 -46 0 -43 -25 -67 -72 -67 l-38 0 0 65 0 65 37 0 c20 0 45 -7 55 -17z m252 -5 c46 -66 -28 -144 -86 -91 -22 20 -23 70 -1 95 23 25 68 23 87 -4z m216 3 c13 -26 5 -46 -26 -60 -30 -13 -26 -37 5 -34 11 2 21 -2 21 -7 0 -14 -44 -12 -58 2 -20 20 -13 46 16 60 36 18 36 44 -1 41 -15 -1 -25 2 -22 8 11 16 54 10 65 -10z m-3402 -108 c17 -3 32 -9 32 -13 0 -35 -78 -160 -100 -160 -5 0 -25 20 -45 44 l-36 44 28 52 c26 47 30 50 58 45 17 -4 45 -9 63 -12z m537 -38 l29 -55 -39 -40 c-39 -38 -41 -39 -63 -24 -23 16 -67 94 -74 129 -2 15 6 21 42 31 70 19 73 18 105 -41z m-759 -202 c8 -11 13 -46 14 -89 l0 -71 72 69 72 69 28 -33 c15 -18 37 -57 49 -85 20 -46 25 -52 46 -47 19 5 25 1 34 -25 10 -27 14 -30 37 -23 35 9 119 9 154 0 23 -7 27 -4 37 23 9 26 15 30 34 25 21 -5 27 1 52 54 16 33 39 70 52 81 l22 22 56 -47 c30 -26 60 -57 66 -69 11 -21 11 -21 -14 1 l-25 24 -27 -46 -27 -45 -46 5 c-26 3 -53 8 -60 10 -7 2 -11 0 -8 -5 3 -5 32 -19 63 -31 152 -58 156 -64 168 -207 6 -72 5 -83 -9 -83 -11 0 -16 9 -16 27 l0 27 -29 -28 c-40 -38 -60 -24 -22 15 35 35 52 109 30 135 -19 23 -67 45 -129 60 -79 19 -79 19 -27 -34 47 -48 60 -82 32 -82 -8 0 -15 7 -15 15 0 13 -118 135 -131 135 -3 0 -13 -25 -23 -55 l-17 -55 -63 0 -62 0 -19 53 c-10 28 -19 54 -21 56 -6 7 -122 -103 -133 -125 -6 -13 -15 -24 -21 -24 -23 0 -7 34 36 80 26 28 43 50 38 50 -25 -1 -125 -29 -156 -44 -19 -9 -40 -27 -45 -39 -15 -32 11 -113 42 -133 14 -9 22 -20 19 -25 -9 -15 -20 -11 -47 17 l-25 25 -4 -22 c-2 -12 -9 -25 -17 -27 -12 -4 -13 10 -7 82 4 47 11 99 17 114 11 32 56 60 135 86 28 9 59 23 69 30 16 12 10 12 -40 4 -65 -10 -62 -11 -98 54 l-19 33 -50 -53 c-27 -28 -51 -52 -53 -52 -14 0 -39 65 -51 133 -17 101 -18 95 4 100 37 10 65 6 78 -10z m957 -2 c5 -5 5 -17 -2 -29 -6 -11 -11 -38 -11 -59 0 -38 -29 -115 -48 -127 -5 -3 -17 3 -27 14 -26 29 -33 162 -10 197 15 22 22 24 53 20 19 -4 39 -10 45 -16z"/>
</g>
<g id="layer107" fill="#bd64d3" stroke="none">
<path d="M0 2500 l0 -2500 2500 0 2500 0 0 2500 0 2500 -2500 0 -2500 0 0 -2500z m1140 613 c12 -43 34 -109 47 -146 12 -38 23 -77 23 -88 0 -23 -7 -23 93 0 45 11 115 25 155 32 l72 12 0 44 c0 24 -5 54 -11 65 -9 17 -6 25 20 51 29 30 32 31 48 14 12 -12 18 -32 17 -62 -1 -59 -43 -123 -166 -257 -54 -58 -98 -111 -98 -117 0 -6 36 -46 80 -90 44 -43 80 -84 80 -90 0 -7 4 -10 9 -6 6 3 7 35 4 73 -5 57 -3 71 15 92 18 22 23 23 58 14 31 -7 38 -13 36 -29 -2 -11 -7 -45 -11 -75 -9 -63 -29 -106 -62 -134 -22 -18 -24 -18 -98 -1 -91 22 -171 34 -166 24 3 -3 31 -17 62 -29 152 -58 156 -64 168 -207 6 -72 5 -83 -9 -83 -11 0 -16 9 -16 27 l0 27 -29 -28 c-40 -38 -60 -24 -22 15 35 35 52 109 30 135 -19 23 -67 45 -129 60 -79 19 -79 19 -27 -34 47 -48 60 -82 32 -82 -8 0 -15 7 -15 15 0 13 -118 135 -131 135 -7 0 -7 1 -38 -112 -29 -106 -51 -158 -66 -158 -8 0 -23 29 -35 68 -55 174 -63 197 -66 201 -6 7 -122 -102 -133 -125 -6 -13 -15 -24 -21 -24 -23 0 -7 34 36 80 26 28 43 50 38 50 -25 -1 -125 -29 -156 -44 -19 -9 -40 -27 -45 -39 -15 -32 11 -113 42 -133 14 -9 22 -20 19 -25 -9 -15 -20 -11 -47 17 l-25 25 -4 -22 c-2 -12 -9 -25 -17 -27 -12 -4 -13 10 -7 82 4 47 11 99 17 114 11 32 56 60 135 86 28 9 59 23 69 30 16 12 10 12 -41 4 -32 -5 -84 -15 -115 -23 -78 -21 -85 -20 -114 19 -18 24 -30 59 -41 121 -8 48 -13 89 -11 92 3 2 21 7 41 10 52 8 65 -13 66 -104 l0 -72 91 90 90 89 -100 110 c-137 151 -163 192 -169 260 -3 44 0 59 13 70 14 12 20 10 46 -16 27 -27 28 -33 19 -61 -6 -17 -10 -46 -8 -65 3 -31 5 -33 63 -45 33 -6 103 -21 155 -32 52 -10 96 -18 98 -16 2 1 5 15 8 31 3 16 16 63 30 104 14 41 32 98 41 125 35 108 47 107 83 -12z m923 -110 l-33 -4 0 -60 c0 -33 -4 -59 -10 -59 -6 0 -10 28 -10 65 l0 65 43 -2 c36 -1 38 -2 10 -5z m241 -15 c46 -66 -28 -144 -86 -91 -22 20 -23 70 -1 95 23 25 68 23 87 -4z m216 3 c13 -26 5 -46 -26 -60 -30 -13 -26 -37 5 -34 11 2 21 -2 21 -7 0 -14 -44 -12 -58 2 -20 20 -13 46 16 60 36 18 36 44 -1 41 -15 -1 -25 2 -22 8 11 16 54 10 65 -10z m379 -40 c23 -64 25 -71 13 -71 -4 0 -16 24 -26 52 l-18 52 -20 -52 c-11 -28 -24 -52 -29 -52 -12 0 -12 1 7 46 9 22 20 49 25 62 13 35 25 26 48 -37z m204 52 c-27 -4 -33 -9 -33 -29 0 -19 5 -24 28 -25 l27 -2 -27 -4 c-22 -3 -28 -10 -28 -28 0 -19 6 -24 33 -28 28 -3 26 -4 -10 -5 l-43 -2 0 65 0 65 43 -2 c36 -1 38 -2 10 -5z m177 -39 l0 -47 35 47 c20 25 40 46 45 46 6 0 10 -29 10 -65 0 -37 -4 -65 -10 -65 -5 0 -10 21 -10 46 l0 47 -35 -47 c-20 -25 -40 -46 -45 -46 -6 0 -10 29 -10 65 0 37 4 65 10 65 6 0 10 -21 10 -46z m235 26 c9 -29 61 -28 68 2 4 12 9 19 13 15 10 -10 -37 -128 -50 -124 -8 3 -56 109 -56 124 0 13 20 -1 25 -17z m307 3 c10 -9 18 -30 18 -46 0 -43 -25 -67 -72 -67 l-38 0 0 65 0 65 37 0 c20 0 45 -7 55 -17z m252 -5 c46 -66 -28 -144 -86 -91 -22 20 -23 70 -1 95 23 25 68 23 87 -4z m216 3 c13 -26 5 -46 -26 -60 -30 -13 -26 -37 5 -34 11 2 21 -2 21 -7 0 -14 -44 -12 -58 2 -20 20 -13 46 16 60 36 18 36 44 -1 41 -15 -1 -25 2 -22 8 11 16 54 10 65 -10z"/>
</g>
<g id="layer108" fill="#e6d759" stroke="none">
<path d="M0 2500 l0 -2500 2500 0 2500 0 0 2500 0 2500 -2500 0 -2500 0 0 -2500z m1140 613 c12 -43 34 -109 47 -146 12 -38 23 -77 23 -88 0 -23 -7 -23 93 0 45 11 115 25 155 32 l72 12 0 44 c0 24 -5 54 -11 65 -9 17 -6 25 20 51 29 30 32 31 48 14 12 -12 18 -32 17 -62 -1 -59 -43 -123 -166 -257 -54 -58 -98 -111 -98 -117 0 -6 36 -46 80 -90 44 -43 80 -84 80 -90 0 -7 4 -10 9 -6 6 3 7 35 4 73 -5 57 -3 71 15 92 18 22 23 23 58 14 31 -7 38 -13 36 -29 -2 -11 -7 -45 -11 -75 -9 -63 -29 -106 -62 -134 -22 -18 -24 -18 -98 -1 -91 22 -171 34 -166 24 3 -3 31 -17 62 -29 152 -58 156 -64 168 -207 6 -72 5 -83 -9 -83 -11 0 -16 9 -16 27 l0 27 -29 -28 c-40 -38 -60 -24 -22 15 35 35 52 109 30 135 -19 23 -67 45 -129 60 -79 19 -79 19 -27 -34 47 -48 60 -82 32 -82 -8 0 -15 7 -15 15 0 13 -118 135 -131 135 -7 0 -7 1 -38 -112 -29 -106 -51 -158 -66 -158 -8 0 -23 29 -35 68 -55 174 -63 197 -66 201 -6 7 -122 -102 -133 -125 -6 -13 -15 -24 -21 -24 -23 0 -7 34 36 80 26 28 43 50 38 50 -25 -1 -125 -29 -156 -44 -19 -9 -40 -27 -45 -39 -15 -32 11 -113 42 -133 14 -9 22 -20 19 -25 -9 -15 -20 -11 -47 17 l-25 25 -4 -22 c-2 -12 -9 -25 -17 -27 -12 -4 -13 10 -7 82 4 47 11 99 17 114 11 32 56 60 135 86 28 9 59 23 69 30 16 12 10 12 -41 4 -32 -5 -84 -15 -115 -23 -78 -21 -85 -20 -114 19 -18 24 -30 59 -41 121 -8 48 -13 89 -11 92 3 2 21 7 41 10 52 8 65 -13 66 -104 l0 -72 91 90 90 89 -100 110 c-137 151 -163 192 -169 260 -3 44 0 59 13 70 14 12 20 10 46 -16 27 -27 28 -33 19 -61 -6 -17 -10 -46 -8 -65 3 -31 5 -33 63 -45 33 -6 103 -21 155 -32 52 -10 96 -18 98 -16 2 1 5 15 8 31 3 16 16 63 30 104 14 41 32 98 41 125 35 108 47 107 83 -12z m923 -110 l-33 -4 0 -60 c0 -33 -4 -59 -10 -59 -6 0 -10 28 -10 65 l0 65 43 -2 c36 -1 38 -2 10 -5z m241 -15 c46 -66 -28 -144 -86 -91 -22 20 -23 70 -1 95 23 25 68 23 87 -4z m216 3 c13 -26 5 -46 -26 -60 -30 -13 -26 -37 5 -34 11 2 21 -2 21 -7 0 -14 -44 -12 -58 2 -20 20 -13 46 16 60 36 18 36 44 -1 41 -15 -1 -25 2 -22 8 11 16 54 10 65 -10z m379 -40 c23 -64 25 -71 13 -71 -4 0 -16 24 -26 52 l-18 52 -20 -52 c-11 -28 -24 -52 -29 -52 -12 0 -12 1 7 46 9 22 20 49 25 62 13 35 25 26 48 -37z m204 52 c-27 -4 -33 -9 -33 -29 0 -19 5 -24 28 -25 l27 -2 -27 -4 c-22 -3 -28 -10 -28 -28 0 -19 6 -24 33 -28 28 -3 26 -4 -10 -5 l-43 -2 0 65 0 65 43 -2 c36 -1 38 -2 10 -5z m177 -39 l0 -47 35 47 c20 25 40 46 45 46 6 0 10 -29 10 -65 0 -37 -4 -65 -10 -65 -5 0 -10 21 -10 46 l0 47 -35 -47 c-20 -25 -40 -46 -45 -46 -6 0 -10 29 -10 65 0 37 4 65 10 65 6 0 10 -21 10 -46z m235 26 c9 -29 61 -28 68 2 4 12 9 19 13 15 10 -10 -37 -128 -50 -124 -8 3 -56 109 -56 124 0 13 20 -1 25 -17z m307 3 c10 -9 18 -30 18 -46 0 -43 -25 -67 -72 -67 l-38 0 0 65 0 65 37 0 c20 0 45 -7 55 -17z m252 -5 c46 -66 -28 -144 -86 -91 -22 20 -23 70 -1 95 23 25 68 23 87 -4z m216 3 c13 -26 5 -46 -26 -60 -30 -13 -26 -37 5 -34 11 2 21 -2 21 -7 0 -14 -44 -12 -58 2 -20 20 -13 46 16 60 36 18 36 44 -1 41 -15 -1 -25 2 -22 8 11 16 54 10 65 -10z m-2410 -446 l0 -65 36 0 c80 0 130 -48 128 -123 -1 -32 -8 -47 -33 -69 -29 -26 -37 -28 -121 -28 l-90 0 0 175 0 175 40 0 40 0 0 -65z m330 -110 l0 -175 -40 0 -40 0 0 175 0 175 40 0 40 0 0 -175z m180 68 l0 -108 70 108 c69 107 70 107 110 107 l40 0 0 -175 0 -175 -40 0 -39 0 -3 106 -3 106 -66 -103 c-65 -102 -67 -104 -108 -107 l-41 -3 0 175 0 176 40 0 40 0 0 -107z m379 72 l12 -35 69 0 68 0 12 35 c11 33 14 35 55 35 l43 0 -70 -176 -71 -175 -40 3 -40 3 -68 169 c-38 93 -69 171 -69 173 0 1 19 3 43 3 40 0 44 -2 56 -35z m441 -105 l0 -140 40 0 c39 0 40 -1 40 -35 l0 -35 -126 0 -125 0 3 33 c3 30 6 32 46 35 l42 3 0 140 0 139 40 0 40 0 0 -140z m360 105 l0 -35 -60 0 -60 0 0 -35 0 -35 55 0 55 0 0 -35 0 -35 -55 0 -55 0 0 -35 0 -35 60 0 60 0 0 -35 0 -35 -100 0 -100 0 0 175 0 175 100 0 100 0 0 -35z m172 -30 l3 -66 49 66 c49 64 50 65 98 65 26 0 48 -3 48 -6 0 -3 -25 -35 -56 -71 l-56 -66 31 -24 c36 -28 49 -79 31 -123 -20 -48 -49 -60 -145 -60 l-85 0 0 175 0 175 40 0 39 0 3 -65z m348 -110 l0 -175 -40 0 -40 0 0 175 0 175 40 0 40 0 0 -175z m159 140 l12 -35 69 0 68 0 12 35 c11 33 14 35 55 35 l43 0 -70 -176 -71 -175 -40 3 -40 3 -68 169 c-38 93 -69 171 -69 173 0 1 19 3 43 3 40 0 44 -2 56 -35z m-1842 -376 c7 -7 22 -7 51 2 50 15 66 9 87 -30 15 -30 15 -31 -8 -31 -13 0 -28 5 -33 10 -8 8 -19 8 -38 0 -48 -18 -74 -13 -91 20 -8 16 -15 31 -15 35 0 9 36 5 47 -6z"/>
<path d="M1005 2832 c-11 -12 -4 -20 26 -31 59 -20 159 -5 159 24 0 9 -23 13 -90 13 -49 0 -92 -3 -95 -6z"/>
<path d="M932 2744 c-21 -43 -22 -64 -2 -64 13 0 50 65 50 89 0 36 -25 23 -48 -25z"/>
<path d="M1210 2772 c0 -9 11 -34 25 -55 44 -64 62 -40 25 33 -21 41 -50 54 -50 22z"/>
<path d="M910 2611 c0 -15 51 -101 61 -101 17 0 9 57 -12 84 -20 25 -49 35 -49 17z"/>
<path d="M1235 2594 c-20 -31 -25 -75 -8 -81 10 -4 53 75 53 98 0 19 -28 8 -45 -17z"/>
<path d="M1023 2520 c-23 -9 -30 -25 -15 -34 5 -3 26 0 49 5 28 8 52 7 79 0 42 -12 67 0 46 21 -15 15 -129 21 -159 8z"/>
</g>
<g id="layer109" fill="#baf46e" stroke="none">
<path d="M0 2500 l0 -2500 2500 0 2500 0 0 2500 0 2500 -2500 0 -2500 0 0 -2500z m1141 615 c12 -38 24 -77 25 -85 6 -36 53 -165 61 -165 4 0 42 8 83 17 41 9 108 22 148 29 l72 12 0 44 c0 24 -5 54 -11 65 -9 17 -6 25 20 51 29 30 32 31 48 14 12 -12 18 -32 17 -62 -1 -59 -43 -123 -166 -257 -54 -58 -98 -110 -98 -115 0 -6 36 -46 80 -91 44 -44 80 -85 80 -92 0 -6 4 -9 9 -5 6 3 7 35 4 73 -5 57 -3 71 15 92 18 22 23 23 58 14 31 -7 38 -13 36 -29 -2 -11 -7 -45 -11 -75 -9 -63 -29 -106 -60 -134 -21 -19 -24 -19 -92 -3 -39 10 -75 15 -80 11 -5 -3 -9 -1 -9 4 0 5 -18 10 -40 10 -22 0 -40 -1 -40 -2 0 -2 26 -14 58 -26 151 -58 155 -64 167 -207 6 -72 5 -83 -9 -83 -11 0 -16 9 -16 27 l0 27 -29 -28 c-40 -38 -60 -24 -22 15 35 35 52 109 30 135 -19 23 -67 45 -129 60 -79 19 -79 19 -27 -34 47 -48 60 -82 32 -82 -8 0 -15 7 -15 15 0 13 -118 135 -130 135 -5 0 -24 -61 -31 -98 -2 -9 -45 -131 -54 -154 -14 -35 -34 -17 -55 50 -12 37 -24 74 -27 82 -3 8 -7 20 -7 25 -3 19 -29 95 -33 95 -12 0 -123 -106 -132 -126 -6 -13 -15 -24 -21 -24 -23 0 -7 34 36 80 26 28 43 50 38 50 -25 -1 -125 -29 -156 -44 -19 -9 -40 -27 -45 -39 -15 -32 11 -113 42 -133 14 -9 22 -20 19 -25 -9 -15 -20 -11 -47 17 l-25 25 -4 -22 c-2 -12 -9 -25 -17 -27 -12 -4 -13 10 -7 82 4 47 11 99 17 114 11 32 56 60 134 86 28 9 57 21 65 26 21 14 -80 4 -150 -15 -77 -21 -86 -19 -115 19 -18 24 -30 59 -41 121 -8 48 -13 89 -11 92 3 2 21 7 41 10 52 8 65 -13 66 -104 l0 -71 91 89 91 90 -64 67 c-70 75 -140 159 -178 212 -31 45 -41 139 -15 160 14 12 20 10 46 -16 27 -27 28 -33 19 -61 -6 -17 -10 -46 -8 -65 3 -36 -12 -31 213 -74 50 -10 92 -18 94 -18 2 -1 18 46 37 104 79 246 80 249 99 229 7 -8 23 -45 36 -84z m922 -112 l-33 -4 0 -60 c0 -33 -4 -59 -10 -59 -6 0 -10 28 -10 65 l0 65 43 -2 c36 -1 38 -2 10 -5z m241 -15 c46 -66 -28 -144 -86 -91 -22 20 -23 70 -1 95 23 25 68 23 87 -4z m216 3 c13 -26 5 -46 -26 -60 -30 -13 -26 -37 5 -34 11 2 21 -2 21 -7 0 -14 -44 -12 -58 2 -20 20 -13 46 16 60 36 18 36 44 -1 41 -15 -1 -25 2 -22 8 11 16 54 10 65 -10z m379 -40 c23 -64 25 -71 13 -71 -4 0 -16 24 -26 52 l-18 52 -20 -52 c-11 -28 -24 -52 -29 -52 -12 0 -12 1 7 46 9 22 20 49 25 62 13 35 25 26 48 -37z m204 52 c-27 -4 -33 -9 -33 -29 0 -19 5 -24 28 -25 l27 -2 -27 -4 c-22 -3 -28 -10 -28 -28 0 -19 6 -24 33 -28 28 -3 26 -4 -10 -5 l-43 -2 0 65 0 65 43 -2 c36 -1 38 -2 10 -5z m177 -39 l0 -47 35 47 c20 25 40 46 45 46 6 0 10 -29 10 -65 0 -37 -4 -65 -10 -65 -5 0 -10 21 -10 46 l0 47 -35 -47 c-20 -25 -40 -46 -45 -46 -6 0 -10 29 -10 65 0 37 4 65 10 65 6 0 10 -21 10 -46z m235 26 c9 -29 61 -28 68 2 4 12 9 19 13 15 10 -10 -37 -128 -50 -124 -8 3 -56 109 -56 124 0 13 20 -1 25 -17z m307 3 c10 -9 18 -30 18 -46 0 -43 -25 -67 -72 -67 l-38 0 0 65 0 65 37 0 c20 0 45 -7 55 -17z m252 -5 c46 -66 -28 -144 -86 -91 -22 20 -23 70 -1 95 23 25 68 23 87 -4z m216 3 c13 -26 5 -46 -26 -60 -30 -13 -26 -37 5 -34 11 2 21 -2 21 -7 0 -14 -44 -12 -58 2 -20 20 -13 46 16 60 36 18 36 44 -1 41 -15 -1 -25 2 -22 8 11 16 54 10 65 -10z m-2410 -446 l0 -65 36 0 c80 0 130 -48 128 -123 -1 -32 -8 -47 -33 -69 -29 -26 -37 -28 -121 -28 l-90 0 0 175 0 175 40 0 40 0 0 -65z m330 -110 l0 -175 -40 0 -40 0 0 175 0 175 40 0 40 0 0 -175z m180 68 l0 -108 70 108 c69 107 70 107 110 107 l40 0 0 -175 0 -175 -40 0 -39 0 -3 106 -3 106 -66 -103 c-65 -102 -67 -104 -108 -107 l-41 -3 0 175 0 176 40 0 40 0 0 -107z m379 72 l12 -35 69 0 68 0 12 35 c11 33 14 35 55 35 l43 0 -70 -176 -71 -175 -40 3 -40 3 -68 169 c-38 93 -69 171 -69 173 0 1 19 3 43 3 40 0 44 -2 56 -35z m441 -105 l0 -140 40 0 c39 0 40 -1 40 -35 l0 -35 -126 0 -125 0 3 33 c3 30 6 32 46 35 l42 3 0 140 0 139 40 0 40 0 0 -140z m360 105 l0 -35 -60 0 -60 0 0 -35 0 -35 55 0 55 0 0 -35 0 -35 -55 0 -55 0 0 -35 0 -35 60 0 60 0 0 -35 0 -35 -100 0 -100 0 0 175 0 175 100 0 100 0 0 -35z m172 -30 l3 -66 49 66 c49 64 50 65 98 65 26 0 48 -3 48 -6 0 -3 -25 -35 -56 -71 l-56 -66 31 -24 c36 -28 49 -79 31 -123 -20 -48 -49 -60 -145 -60 l-85 0 0 175 0 175 40 0 39 0 3 -65z m348 -110 l0 -175 -40 0 -40 0 0 175 0 175 40 0 40 0 0 -175z m159 140 l12 -35 69 0 68 0 12 35 c11 33 14 35 55 35 l43 0 -70 -176 -71 -175 -40 3 -40 3 -68 169 c-38 93 -69 171 -69 173 0 1 19 3 43 3 40 0 44 -2 56 -35z m-1842 -376 c7 -7 22 -7 51 2 50 15 66 9 87 -30 15 -30 15 -31 -8 -31 -13 0 -28 5 -33 10 -8 8 -19 8 -38 0 -48 -18 -74 -13 -91 20 -8 16 -15 31 -15 35 0 9 36 5 47 -6z"/>
<path d="M911 2413 c-19 -12 -30 -23 -26 -23 17 0 75 24 75 31 0 17 -17 15 -49 -8z"/>
<path d="M1236 2432 c-8 -13 13 -29 49 -37 27 -6 28 -5 10 6 -11 6 -27 18 -37 26 -9 8 -18 10 -22 5z"/>
<path d="M1880 2365 c0 -39 3 -45 21 -45 33 0 59 19 59 43 0 31 -18 47 -52 47 -27 0 -28 -2 -28 -45z"/>
<path d="M2816 2448 c3 -12 12 -35 19 -52 l13 -31 12 30 c7 17 16 40 21 53 8 21 6 22 -32 22 -37 0 -40 -2 -33 -22z"/>
<path d="M3740 2365 c0 -40 2 -45 23 -45 29 0 47 18 47 45 0 27 -18 45 -47 45 -21 0 -23 -5 -23 -45z"/>
<path d="M4296 2448 c3 -12 12 -35 19 -52 l13 -31 12 30 c7 17 16 40 21 53 8 21 6 22 -32 22 -37 0 -40 -2 -33 -22z"/>
</g>
<g id="layer110" fill="#edeff0" stroke="none">
<path d="M1740 2940 l0 -160 1420 0 1420 0 0 160 0 160 -1420 0 -1420 0 0 -160z m323 63 l-33 -4 0 -60 c0 -33 -4 -59 -10 -59 -6 0 -10 28 -10 65 l0 65 43 -2 c36 -1 38 -2 10 -5z m241 -15 c46 -66 -28 -144 -86 -91 -22 20 -23 70 -1 95 23 25 68 23 87 -4z m216 3 c13 -26 5 -46 -26 -60 -30 -13 -26 -37 5 -34 11 2 21 -2 21 -7 0 -14 -44 -12 -58 2 -20 20 -13 46 16 60 36 18 36 44 -1 41 -15 -1 -25 2 -22 8 11 16 54 10 65 -10z m379 -40 c23 -64 25 -71 13 -71 -4 0 -16 24 -26 52 l-18 52 -20 -52 c-11 -28 -24 -52 -29 -52 -12 0 -12 1 7 46 9 22 20 49 25 62 13 35 25 26 48 -37z m204 52 c-27 -4 -33 -9 -33 -29 0 -19 5 -24 28 -25 l27 -2 -27 -4 c-22 -3 -28 -10 -28 -28 0 -19 6 -24 33 -28 28 -3 26 -4 -10 -5 l-43 -2 0 65 0 65 43 -2 c36 -1 38 -2 10 -5z m177 -39 l0 -47 35 47 c20 25 40 46 45 46 6 0 10 -29 10 -65 0 -37 -4 -65 -10 -65 -5 0 -10 21 -10 46 l0 47 -35 -47 c-20 -25 -40 -46 -45 -46 -6 0 -10 29 -10 65 0 37 4 65 10 65 6 0 10 -21 10 -46z m235 26 c9 -29 61 -28 68 2 4 12 9 19 13 15 10 -10 -37 -128 -50 -124 -8 3 -56 109 -56 124 0 13 20 -1 25 -17z m307 3 c10 -9 18 -30 18 -46 0 -43 -25 -67 -72 -67 l-38 0 0 65 0 65 37 0 c20 0 45 -7 55 -17z m252 -5 c46 -66 -28 -144 -86 -91 -22 20 -23 70 -1 95 23 25 68 23 87 -4z m216 3 c13 -26 5 -46 -26 -60 -30 -13 -26 -37 5 -34 11 2 21 -2 21 -7 0 -14 -44 -12 -58 2 -20 20 -13 46 16 60 36 18 36 44 -1 41 -15 -1 -25 2 -22 8 11 16 54 10 65 -10z"/>
<path d="M2232 2988 c-27 -27 -9 -98 24 -98 20 0 44 30 44 55 0 42 -42 69 -68 43z"/>
<path d="M3534 2944 c3 -9 6 -20 6 -25 0 -17 17 -1 23 21 4 15 0 20 -15 20 -14 0 -18 -5 -14 -16z"/>
<path d="M3750 2945 c0 -51 2 -55 23 -55 31 0 47 18 47 55 0 37 -16 55 -47 55 -21 0 -23 -4 -23 -55z"/>
<path d="M4002 2988 c-27 -27 -9 -98 24 -98 20 0 44 30 44 55 0 42 -42 69 -68 43z"/>
</g>


</svg>